{
    "asset": {
        "copyright": "2020 (c) Adobe Inc.",
        "generator": "Adobe Dimension - 695fff5264e3b00eaca24d3119e0b5e4c864ae29",
        "version": "2.0"
    },
    "accessors": [
        {
            "bufferView": 0,
            "componentType": 5126,
            "count": 2400,
            "type": "VEC3",
            "max": [
                0.8580983281135559,
                0.5995029211044312,
                0.665403425693512
            ],
            "min": [
                0.531643271446228,
                0.5360028743743897,
                0.640003502368927
            ]
        },
        {
            "bufferView": 1,
            "componentType": 5126,
            "count": 2400,
            "type": "VEC3"
        },
        {
            "bufferView": 2,
            "componentType": 5126,
            "count": 2400,
            "type": "VEC2"
        },
        {
            "bufferView": 3,
            "componentType": 5125,
            "count": 2400,
            "type": "SCALAR",
            "max": [
                2399.0
            ],
            "min": [
                0.0
            ]
        },
        {
            "bufferView": 4,
            "componentType": 5126,
            "count": 3696,
            "type": "VEC3",
            "max": [
                0.8019252419471741,
                0.2944619059562683,
                0.665403425693512
            ],
            "min": [
                0.5414124727249146,
                0.2277054786682129,
                0.640003502368927
            ]
        },
        {
            "bufferView": 5,
            "componentType": 5126,
            "count": 3696,
            "type": "VEC3"
        },
        {
            "bufferView": 6,
            "componentType": 5126,
            "count": 3696,
            "type": "VEC2"
        },
        {
            "bufferView": 7,
            "componentType": 5125,
            "count": 3696,
            "type": "SCALAR",
            "max": [
                3695.0
            ],
            "min": [
                0.0
            ]
        },
        {
            "bufferView": 8,
            "componentType": 5126,
            "count": 48444,
            "type": "VEC3",
            "max": [
                1.0542725324630738,
                0.8300718665122986,
                1.0904918909072877
            ],
            "min": [
                0.008803162723779679,
                0.004571796860545874,
                0.003498889971524477
            ]
        },
        {
            "bufferView": 9,
            "componentType": 5126,
            "count": 48444,
            "type": "VEC3"
        },
        {
            "bufferView": 10,
            "componentType": 5126,
            "count": 48444,
            "type": "VEC2"
        },
        {
            "bufferView": 11,
            "componentType": 5125,
            "count": 48444,
            "type": "SCALAR",
            "max": [
                48443.0
            ],
            "min": [
                0.0
            ]
        }
    ],
    "bufferViews": [
        {
            "buffer": 0,
            "byteOffset": 0,
            "byteLength": 28800,
            "target": 34962
        },
        {
            "buffer": 0,
            "byteOffset": 28800,
            "byteLength": 28800,
            "target": 34962
        },
        {
            "buffer": 0,
            "byteOffset": 57600,
            "byteLength": 19200,
            "target": 34962
        },
        {
            "buffer": 0,
            "byteOffset": 76800,
            "byteLength": 9600,
            "target": 34963
        },
        {
            "buffer": 0,
            "byteOffset": 86400,
            "byteLength": 44352,
            "target": 34962
        },
        {
            "buffer": 0,
            "byteOffset": 130752,
            "byteLength": 44352,
            "target": 34962
        },
        {
            "buffer": 0,
            "byteOffset": 175104,
            "byteLength": 29568,
            "target": 34962
        },
        {
            "buffer": 0,
            "byteOffset": 204672,
            "byteLength": 14784,
            "target": 34963
        },
        {
            "buffer": 0,
            "byteOffset": 219456,
            "byteLength": 581328,
            "target": 34962
        },
        {
            "buffer": 0,
            "byteOffset": 800784,
            "byteLength": 581328,
            "target": 34962
        },
        {
            "buffer": 0,
            "byteOffset": 1382112,
            "byteLength": 387552,
            "target": 34962
        },
        {
            "buffer": 0,
            "byteOffset": 1769664,
            "byteLength": 193776,
            "target": 34963
        }
    ],
    "buffers": [
        {
            "byteLength": 1963440,
            "uri": "camlock_binary.bin"
        }
    ],
    "cameras": [
        {
            "perspective": {
                "znear": 0.000010203491001448129,
                "yfov": 0.6024156808853149,
                "zfar": 2.0,
                "aspectRatio": 1.3333333730697632
            },
            "type": "perspective",
            "name": "render_camera"
        }
    ],
    "images": [
        {
            "name": "image",
            "uri": "camlock_images/image.png",
            "mimeType": "image/png"
        }
    ],
    "materials": [
        {
            "pbrMetallicRoughness": {
                "baseColorFactor": [
                    0.830769956111908,
                    0.7304608821868897,
                    0.45641106367111208,
                    1.0
                ],
                "metallicRoughnessTexture": {
                    "index": 0
                }
            },
            "name": "Brass",
            "doubleSided": true
        }
    ],
    "meshes": [
        {
            "name": "body 3",
            "primitives": [
                {
                    "attributes": {
                        "POSITION": 0,
                        "NORMAL": 1,
                        "TEXCOORD_0": 2
                    },
                    "indices": 3,
                    "material": 0
                }
            ]
        },
        {
            "name": "body 2",
            "primitives": [
                {
                    "attributes": {
                        "TEXCOORD_0": 6,
                        "NORMAL": 5,
                        "POSITION": 4
                    },
                    "indices": 7,
                    "material": 0
                }
            ]
        },
        {
            "name": "body",
            "primitives": [
                {
                    "attributes": {
                        "POSITION": 8,
                        "NORMAL": 9,
                        "TEXCOORD_0": 10
                    },
                    "indices": 11,
                    "material": 0
                }
            ]
        }
    ],
    "nodes": [
        {
            "translation": [
                1.4364111423492432,
                1.4222217798233033,
                -2.542964458465576
            ],
            "rotation": [
                -0.030605869367718698,
                0.9665430188179016,
                0.13835442066192628,
                0.21381287276744843
            ],
            "scale": [
                1.0000001192092896,
                1.0,
                1.0000001192092896
            ],
            "camera": 0,
            "name": "render_camera_n3d"
        },
        {
            "children": [
                2,
                3,
                4
            ],
            "translation": [
                0.40506407618522646,
                0.07573555409908295,
                -0.3674776256084442
            ],
            "scale": [
                0.29424944519996645,
                0.29424944519996645,
                0.29424944519996645
            ],
            "name": "Group"
        },
        {
            "translation": [
                -0.21263566613197328,
                0.1347762793302536,
                0.1663094460964203
            ],
            "rotation": [
                -0.7193398475646973,
                7.579140697748337e-15,
                -2.3802358501345216e-15,
                0.6946583390235901
            ],
            "scale": [
                0.9999999403953552,
                1.0000003576278687,
                1.0000003576278687
            ],
            "mesh": 0,
            "name": "body 3"
        },
        {
            "translation": [
                -0.2070787250995636,
                0.15688875317573548,
                0.18114764988422395
            ],
            "rotation": [
                -0.7253467440605164,
                0.006006954703480005,
                -0.006330224219709635,
                0.6883283853530884
            ],
            "scale": [
                1.0000001192092896,
                0.9999999403953552,
                1.0000001192092896
            ],
            "mesh": 1,
            "name": "body 2"
        },
        {
            "translation": [
                -0.08099894970655441,
                0.13402992486953736,
                0.17621812224388123
            ],
            "rotation": [
                -0.7253743410110474,
                -2.577047343560847e-15,
                2.4455266320165408e-15,
                0.6883545517921448
            ],
            "mesh": 2,
            "name": "body"
        }
    ],
    "samplers": [
        {}
    ],
    "scenes": [
        {
            "nodes": [
                0,
                1
            ],
            "name": "scene"
        }
    ],
    "textures": [
        {
            "name": "image",
            "sampler": 0,
            "source": 0
        }
    ],
    "scene": 0
}