{
    "asset": {
        "copyright": "2020 (c) Adobe Inc.",
        "generator": "Adobe Dimension - a39c749b7f1dd68e8fcb597e3575f0bb9d09bfc8",
        "version": "2.0"
    },
    "accessors": [
        {
            "bufferView": 0,
            "componentType": 5126,
            "count": 15492,
            "type": "VEC3",
            "max": [
                8.948318481445313,
                1.8136571645736695,
                0.05714999884366989
            ],
            "min": [
                5.2718071937561039,
                1.622275948524475,
                0.0
            ]
        },
        {
            "bufferView": 1,
            "componentType": 5126,
            "count": 15492,
            "type": "VEC3"
        },
        {
            "bufferView": 2,
            "componentType": 5126,
            "count": 15492,
            "type": "VEC2"
        },
        {
            "bufferView": 3,
            "componentType": 5125,
            "count": 15492,
            "type": "SCALAR",
            "max": [
                15491.0
            ],
            "min": [
                0.0
            ]
        },
        {
            "bufferView": 4,
            "componentType": 5126,
            "count": 14112,
            "type": "VEC3",
            "max": [
                0.09999999403953552,
                0.19999998807907105,
                0.09999999403953552
            ],
            "min": [
                -0.09999999403953552,
                0.0,
                -0.09999999403953552
            ]
        },
        {
            "bufferView": 5,
            "componentType": 5126,
            "count": 14112,
            "type": "VEC3"
        },
        {
            "bufferView": 6,
            "componentType": 5126,
            "count": 14112,
            "type": "VEC2"
        },
        {
            "bufferView": 7,
            "componentType": 5125,
            "count": 14112,
            "type": "SCALAR",
            "max": [
                14111.0
            ],
            "min": [
                0.0
            ]
        },
        {
            "bufferView": 8,
            "componentType": 5126,
            "count": 44664,
            "type": "VEC3",
            "max": [
                1.3090771436691285,
                0.09470702707767487,
                0.0
            ],
            "min": [
                0.005966796539723873,
                -0.0016503905644640327,
                -0.009999999776482582
            ]
        },
        {
            "bufferView": 9,
            "componentType": 5126,
            "count": 44664,
            "type": "VEC3"
        },
        {
            "bufferView": 10,
            "componentType": 5126,
            "count": 44664,
            "type": "VEC2"
        },
        {
            "bufferView": 11,
            "componentType": 5125,
            "count": 44664,
            "type": "SCALAR",
            "max": [
                44663.0
            ],
            "min": [
                0.0
            ]
        }
    ],
    "bufferViews": [
        {
            "buffer": 0,
            "byteOffset": 0,
            "byteLength": 185904,
            "target": 34962
        },
        {
            "buffer": 0,
            "byteOffset": 185904,
            "byteLength": 185904,
            "target": 34962
        },
        {
            "buffer": 0,
            "byteOffset": 371808,
            "byteLength": 123936,
            "target": 34962
        },
        {
            "buffer": 0,
            "byteOffset": 495744,
            "byteLength": 61968,
            "target": 34963
        },
        {
            "buffer": 0,
            "byteOffset": 557712,
            "byteLength": 169344,
            "target": 34962
        },
        {
            "buffer": 0,
            "byteOffset": 727056,
            "byteLength": 169344,
            "target": 34962
        },
        {
            "buffer": 0,
            "byteOffset": 896400,
            "byteLength": 112896,
            "target": 34962
        },
        {
            "buffer": 0,
            "byteOffset": 1009296,
            "byteLength": 56448,
            "target": 34963
        },
        {
            "buffer": 0,
            "byteOffset": 1065744,
            "byteLength": 535968,
            "target": 34962
        },
        {
            "buffer": 0,
            "byteOffset": 1601712,
            "byteLength": 535968,
            "target": 34962
        },
        {
            "buffer": 0,
            "byteOffset": 2137680,
            "byteLength": 357312,
            "target": 34962
        },
        {
            "buffer": 0,
            "byteOffset": 2494992,
            "byteLength": 178656,
            "target": 34963
        }
    ],
    "buffers": [
        {
            "byteLength": 2673648,
            "uri": "camLogo_binary.bin"
        }
    ],
    "cameras": [
        {
            "perspective": {
                "znear": 0.00008561497088521719,
                "yfov": 0.6024156808853149,
                "zfar": 4.7088236808776859,
                "aspectRatio": 1.3333333730697632
            },
            "type": "perspective",
            "name": "render_camera"
        }
    ],
    "materials": [
        {
            "pbrMetallicRoughness": {
                "baseColorFactor": [
                    0.49102097749710085,
                    0.49102097749710085,
                    0.49102097749710085,
                    1.0
                ],
                "metallicFactor": 0.0
            },
            "name": "Matte",
            "doubleSided": true
        },
        {
            "pbrMetallicRoughness": {
                "baseColorFactor": [
                    0.023153364658355714,
                    0.0012141079641878605,
                    0.28314879536628725,
                    1.0
                ],
                "metallicFactor": 0.0
            },
            "name": "Matte 2",
            "doubleSided": true
        },
        {
            "pbrMetallicRoughness": {
                "baseColorFactor": [
                    0.9301108717918396,
                    0.9559735059738159,
                    0.9559735059738159,
                    1.0
                ],
                "metallicFactor": 0.0
            },
            "name": "Matte 3",
            "doubleSided": true
        }
    ],
    "meshes": [
        {
            "name": "body",
            "primitives": [
                {
                    "attributes": {
                        "POSITION": 0,
                        "NORMAL": 1,
                        "TEXCOORD_0": 2
                    },
                    "indices": 3,
                    "material": 0
                }
            ]
        },
        {
            "name": "PROCEDURAL_MESHES_CYLINDER#",
            "primitives": [
                {
                    "attributes": {
                        "TEXCOORD_0": 6,
                        "NORMAL": 5,
                        "POSITION": 4
                    },
                    "indices": 7,
                    "material": 1
                }
            ]
        },
        {
            "name": "TextMesh#",
            "primitives": [
                {
                    "attributes": {
                        "POSITION": 8,
                        "NORMAL": 9,
                        "TEXCOORD_0": 10
                    },
                    "indices": 11,
                    "material": 2
                }
            ]
        }
    ],
    "nodes": [
        {
            "translation": [
                0.7326778769493103,
                1.0635050535202027,
                4.798439979553223
            ],
            "rotation": [
                -0.04734446480870247,
                0.07999690622091294,
                0.0038039556238800289,
                0.9956628680229187
            ],
            "camera": 0,
            "name": "render_camera_n3d"
        },
        {
            "translation": [
                -5.289365768432617,
                -0.5351697206497192,
                -0.15178737044334413
            ],
            "rotation": [
                1.0272291461888017e-8,
                -0.034899502992630008,
                -4.064446201823557e-8,
                0.9993908405303955
            ],
            "scale": [
                0.7731412053108215,
                0.7731412053108215,
                0.7731413245201111
            ],
            "mesh": 0,
            "name": "body"
        },
        {
            "translation": [
                0.019298037514090539,
                0.7489860653877258,
                -0.10966434329748154
            ],
            "rotation": [
                0.699948787689209,
                -0.03732863441109657,
                0.03668275475502014,
                0.7122728824615479
            ],
            "scale": [
                20.271093368530275,
                0.759520947933197,
                5.974216938018799
            ],
            "mesh": 1,
            "name": "Cylinder"
        },
        {
            "translation": [
                1.3083534240722657,
                0.6654707789421082,
                -0.0595179907977581
            ],
            "rotation": [
                -0.0004639232356566936,
                0.9986351728439331,
                -0.0012101350584998727,
                0.052212487906217578
            ],
            "scale": [
                2.026400566101074,
                2.0264012813568117,
                2.0264008045196535
            ],
            "mesh": 2,
            "name": "Text 2"
        }
    ],
    "scenes": [
        {
            "nodes": [
                0,
                1,
                2,
                3
            ],
            "name": "scene"
        }
    ],
    "scene": 0
}